<?xml version="1.0" encoding="UTF-8" standalone="no"?>
<!DOCTYPE svg PUBLIC "-//W3C//DTD SVG 1.1//EN" "http://www.w3.org/Graphics/SVG/1.1/DTD/svg11.dtd">
<svg version="1.1" xmlns="http://www.w3.org/2000/svg" xmlns:xlink="http://www.w3.org/1999/xlink" preserveAspectRatio="xMidYMid meet" viewBox="0 0 640 640" width="640" height="640"><defs><path d="M424.76 631.66L424.76 151.62L553.94 151.62L553.94 631.66L424.76 631.66ZM237.42 117.94L213.64 117.94L213.64 631.66L45.76 631.66L45.76 518.88L84.46 518.88L84.46 5.16L172.3 5.16L237.42 117.94ZM256.83 631.66L256.83 151.62L386.01 151.62L386.01 631.66L256.83 631.66ZM409.78 117.94L474.9 5.16L600.2 5.16L600.2 117.94L409.78 117.94Z" id="f1ExiTrByF"></path><path d="M277.2 117.53L212.08 4.75L435.12 4.75L370 117.53L277.2 117.53Z" id="e5U9KFeKe"></path></defs><g><g><g><use xlink:href="#f1ExiTrByF" opacity="1" fill="#000000" fill-opacity="1"></use></g><g><use xlink:href="#e5U9KFeKe" opacity="1" fill="#29bdda" fill-opacity="1"></use></g></g></g></svg>